<?xml version="1.0" standalone="no"?>
<!DOCTYPE svg PUBLIC "-//W3C//DTD SVG 20010904//EN"
 "http://www.w3.org/TR/2001/REC-SVG-20010904/DTD/svg10.dtd">
<svg version="1.0" xmlns="http://www.w3.org/2000/svg"
 width="864.000000pt" height="637.000000pt" viewBox="0 0 864.000000 637.000000"
 preserveAspectRatio="xMidYMid meet">

<g transform="translate(0.000000,637.000000) scale(0.100000,-0.100000)"
fill="#000000" stroke="none">
<path d="M0 3185 l0 -3185 4320 0 4320 0 0 3185 0 3185 -4320 0 -4320 0 0
-3185z m4925 2845 c204 -72 411 -144 460 -162 50 -17 230 -80 400 -140 171
-60 501 -176 735 -258 984 -343 1575 -551 1583 -559 4 -4 6 -1017 5 -2251 l-3
-2244 -365 -128 c-201 -70 -373 -130 -382 -134 -17 -5 -18 106 -18 2239 l0
2245 -42 15 c-449 157 -1076 377 -1263 442 -132 46 -344 120 -472 164 -127 45
-237 81 -242 81 -8 0 -11 -196 -11 -644 l0 -644 73 -26 c39 -14 320 -113 622
-219 l550 -192 3 -1148 c1 -631 0 -1147 -2 -1147 -5 0 -696 242 -729 255 -16
7 -17 -17 -17 -451 l1 -458 -633 -223 c-348 -122 -634 -223 -635 -223 -2 0 -3
598 -3 1328 l0 1329 -1004 351 c-552 194 -1009 352 -1015 352 -8 0 -11 -239
-11 -867 l0 -868 368 -129 c202 -71 370 -134 374 -140 4 -6 8 -207 8 -447 0
-338 -3 -439 -12 -446 -7 -5 -341 -125 -743 -265 -401 -141 -738 -259 -747
-263 -17 -7 -18 104 -18 2239 0 1235 -2 2246 -4 2246 -11 0 -752 263 -759 269
-6 6 430 162 1643 585 195 68 530 185 743 260 213 75 390 136 392 136 3 0 4
-325 3 -721 l-3 -721 -200 -70 c-110 -38 -375 -131 -590 -205 -214 -74 -405
-141 -422 -149 l-33 -13 0 -195 c0 -150 3 -196 13 -196 6 0 287 96 622 214
528 185 611 212 616 197 5 -11 125 -58 385 -149 209 -73 382 -132 387 -132 4
0 6 421 5 936 l-3 937 -377 131 c-207 73 -380 134 -383 138 -3 3 99 42 227 87
128 45 296 103 373 131 77 27 149 49 160 49 11 1 187 -58 390 -129z"/>
</g>
</svg>
